{"title":"Tatianna - Cant Get Enough Of Ass Fucking - FirstAnalQuest","uid":10743764,"size":497176615,"categoryP":"porn","categoryS":"movie_clips","magnet":"?xt=urn:btih:da7c89f8936e76895cfcbbc6cf00142778c8396c&amp;dn=Tatianna+-+Cant+Get+Enough+Of+Ass+Fucking+-+FirstAnalQuest&amp;tr=udp%3A%2F%2Ftracker.openbittorrent.com%3A80&amp;tr=udp%3A%2F%2Fopen.demonii.com%3A1337&amp;tr=udp%3A%2F%2Ftracker.coppersurfer.tk%3A6969&amp;tr=udp%3A%2F%2Fexodus.desync.com%3A6969","seeders":1,"leechers":3,"uploader":"athklym","files":-1,"time":1407789983,"description":" &lt;a href=&quot;http://bayimg.com/PAPEdaAFM&quot; rel=&quot;nofollow&quot; target=&quot;_NEW&quot;&gt;http://bayimg.com/PAPEdaAFM&lt;/a&gt;\nTatianna_Cant_Get_Enough_Of_Ass_Fucking_FirstAnalQuest.wmv\nFormat : Windows Media\nFile size : 474 MiB\nDuration : 23mn 58s\nOverall bit rate mode : Constant\nOverall bit rate : 2 765 Kbps\nMaximum Overall bit rate : 2 776 Kbps\nEncoded date : UTC 2010-10-15 15:24:31.894\n\nVideo\nID : 2\nFormat : VC-1\nFormat profile : MP@HL\nCodec ID : WMV3\nCodec ID/Info : Windows Media Video 9\nCodec ID/Hint : WMV3\nDescription of the codec : Windows Media Video 9 - Professional\nDuration : 23mn 58s\nBit rate mode : Constant\nBit rate : 2 560 Kbps\nWidth : 800 pixels\nHeight : 448 pixels\nDisplay aspect ratio : 16:9\nFrame rate : 30.000 fps\nColor space : YUV\nChroma subsampling : 4:2:0\nBit depth : 8 bits\nScan type : Progressive\nCompression mode : Lossy\nBits/(Pixel*Frame) : 0.238\nStream size : 439 MiB (93%)\nLanguage : Russian\n\nAudio\nID : 1\nFormat : WMA\nFormat version : Version 2\nCodec ID : 161\nCodec ID/Info : Windows Media Audio\nDescription of the codec : Windows Media Audio 9.2 - 192 kbps, 48 kHz, stereo 1-pass CBR\nDuration : 23mn 58s\nBit rate mode : Constant\nBit rate : 192 Kbps\nChannel(s) : 2 channels\nSampling rate : 48.0 KHz\nBit depth : 16 bits\nStream size : 32.9 MiB (7%)\nLanguage : Russian","torrent":{"xt":"urn:btih:da7c89f8936e76895cfcbbc6cf00142778c8396c","amp;dn":"Tatianna+-+Cant+Get+Enough+Of+Ass+Fucking+-+FirstAnalQuest","amp;tr":["udp%3A%2F%2Ftracker.openbittorrent.com%3A80","udp%3A%2F%2Fopen.demonii.com%3A1337","udp%3A%2F%2Ftracker.coppersurfer.tk%3A6969","udp%3A%2F%2Fexodus.desync.com%3A6969"],"infoHash":"da7c89f8936e76895cfcbbc6cf00142778c8396c","infoHashBuffer":{"type":"Buffer","data":[218,124,137,248,147,110,118,137,92,252,187,198,207,0,20,39,120,200,57,108]},"announce":[],"urlList":[]}}